<?xml version="1.0" encoding="UTF-8"?>
<svg width="165px" height="165px" viewBox="0 0 165 165" version="1.1" xmlns="http://www.w3.org/2000/svg" xmlns:xlink="http://www.w3.org/1999/xlink">
    <title>Group 19 Copy 6</title>
    <g id="Final!-(fingers-crossed)" stroke="none" stroke-width="1" fill="none" fill-rule="evenodd">
        <g id="Group-19-Copy-6">
            <polygon id="Fill-1" fill="#EB2227" points="0 165 165 165 165 0 0 0"></polygon>
            <g id="Group-18" transform="translate(39.000000, 37.000000)" fill="#FFFFFF">
                <path d="M44.5,81.6813098 C35.5292636,81.6813098 27.2667663,78.4947031 20.774429,73.06434 L28.2105015,65.6283407 L33.0499892,60.7889006 C31.1616435,59.490621 29.5096693,57.8377876 28.2105015,55.9494605 C26.7940233,53.9429488 25.8502882,51.7000679 25.1420491,49.2216932 C24.7874919,47.6870445 24.4338101,46.1523957 24.4338101,44.3822531 C24.4338101,33.4042179 33.4045464,24.4335697 44.3818142,24.4335697 C46.0346639,24.4335697 47.6866381,24.6699389 49.221302,25.0236172 L54.650843,19.5941296 C51.4642049,18.29585 48.0411953,17.5876179 44.3818142,17.5876179 C29.6269796,17.5876179 17.5877909,29.6275636 17.5877909,44.4995623 C17.5877909,48.1589074 18.29603,51.5818833 19.5943224,54.7693655 C20.5380575,57.0113709 21.8372253,59.0187581 23.2537034,60.9070852 L15.8167555,68.3430845 C10.5054002,61.850811 7.20057642,53.588395 7.20057642,44.6177469 C7.20057642,24.0798914 23.8437568,7.43687477 44.3818142,7.43687477 C53.3525506,7.43687477 61.6150479,10.6234815 68.1073853,16.0529691 L60.6713128,23.4898439 L55.8318251,28.329284 C57.7201708,29.6275636 59.3730204,31.2795216 60.6713128,33.1687241 C62.0877909,35.1752358 63.1497118,37.4181167 63.7397651,39.8964913 C64.0943224,41.4311401 64.3306939,43.0830981 64.3306939,44.7359315 C64.3306939,55.7130913 55.3590821,64.6837394 44.2636285,64.6837394 C42.6116543,64.6837394 41.0769904,64.4482457 39.5423265,64.0936919 L34.1127855,69.5231795 C37.2994236,70.8223346 40.7224332,71.5305667 44.3818142,71.5305667 C59.2548346,71.5305667 71.2948988,59.490621 71.2948988,44.6177469 C71.2948988,40.9584018 70.5866597,37.5354259 69.2874919,34.3488191 C68.3437568,32.1059382 67.0454644,30.0994265 65.6289862,28.2110994 L73.0650587,20.7742246 C78.376414,27.2664981 81.6821133,35.5289142 81.6821133,44.4995623 C81.6821133,65.0382932 65.0389329,81.6813098 44.5,81.6813098 M44.5,0 C19.9480042,0 0,19.9486834 0,44.4995623 C0,69.0513166 19.9480042,89 44.5,89 C69.0519958,89 89,69.0513166 89,44.4995623 C89,19.9486834 69.0519958,0 44.5,0" id="Fill-2"></path>
            </g>
        </g>
    </g>
</svg>